<mxfile host="65bd71144e">
    <diagram name="第 1 页" id="EOuV5ERvqpZUSFJWVVJ6">
        <mxGraphModel dx="576" dy="332" grid="1" gridSize="10" guides="1" tooltips="1" connect="1" arrows="1" fold="1" page="1" pageScale="1" pageWidth="3300" pageHeight="4681" math="0" shadow="0">
            <root>
                <mxCell id="0"/>
                <mxCell id="1" parent="0"/>
                <mxCell id="JI0BGSiuXUO0SO42sEZ8-1" value=":老師" style="shape=umlActor;verticalLabelPosition=bottom;verticalAlign=top;html=1;outlineConnect=0;" parent="1" vertex="1">
                    <mxGeometry x="60" y="280" width="30" height="60" as="geometry"/>
                </mxCell>
                <mxCell id="JI0BGSiuXUO0SO42sEZ8-2" value="輸入資料UI" style="shape=umlBoundary;whiteSpace=wrap;html=1;" parent="1" vertex="1">
                    <mxGeometry x="420" y="150" width="100" height="80" as="geometry"/>
                </mxCell>
                <mxCell id="JI0BGSiuXUO0SO42sEZ8-3" value="確認結果UI" style="shape=umlBoundary;whiteSpace=wrap;html=1;" parent="1" vertex="1">
                    <mxGeometry x="420" y="460" width="100" height="80" as="geometry"/>
                </mxCell>
                <mxCell id="JI0BGSiuXUO0SO42sEZ8-4" value="Application Core" style="html=1;whiteSpace=wrap;" parent="1" vertex="1">
                    <mxGeometry x="840" y="290" width="110" height="50" as="geometry"/>
                </mxCell>
                <mxCell id="JI0BGSiuXUO0SO42sEZ8-5" value="" style="endArrow=none;startArrow=none;endFill=0;startFill=0;endSize=8;html=1;verticalAlign=bottom;labelBackgroundColor=none;strokeWidth=3;rounded=0;entryX=-0.02;entryY=0.742;entryDx=0;entryDy=0;entryPerimeter=0;exitX=1;exitY=0.3333333333333333;exitDx=0;exitDy=0;exitPerimeter=0;" parent="1" source="JI0BGSiuXUO0SO42sEZ8-1" target="JI0BGSiuXUO0SO42sEZ8-2" edge="1">
                    <mxGeometry width="160" relative="1" as="geometry">
                        <mxPoint x="120" y="290" as="sourcePoint"/>
                        <mxPoint x="280" y="290" as="targetPoint"/>
                    </mxGeometry>
                </mxCell>
                <mxCell id="JI0BGSiuXUO0SO42sEZ8-6" value="" style="endArrow=none;startArrow=none;endFill=0;startFill=0;endSize=8;html=1;verticalAlign=bottom;labelBackgroundColor=none;strokeWidth=3;rounded=0;entryX=-0.02;entryY=0.525;entryDx=0;entryDy=0;entryPerimeter=0;exitX=1;exitY=0.3333333333333333;exitDx=0;exitDy=0;exitPerimeter=0;" parent="1" source="JI0BGSiuXUO0SO42sEZ8-1" target="JI0BGSiuXUO0SO42sEZ8-3" edge="1">
                    <mxGeometry width="160" relative="1" as="geometry">
                        <mxPoint x="100" y="310" as="sourcePoint"/>
                        <mxPoint x="268" y="249" as="targetPoint"/>
                    </mxGeometry>
                </mxCell>
                <mxCell id="JI0BGSiuXUO0SO42sEZ8-7" value="" style="endArrow=none;startArrow=none;endFill=0;startFill=0;endSize=8;html=1;verticalAlign=bottom;labelBackgroundColor=none;strokeWidth=3;rounded=0;entryX=0.139;entryY=0.08;entryDx=0;entryDy=0;entryPerimeter=0;exitX=0.987;exitY=0.583;exitDx=0;exitDy=0;exitPerimeter=0;" parent="1" source="JI0BGSiuXUO0SO42sEZ8-2" target="JI0BGSiuXUO0SO42sEZ8-4" edge="1">
                    <mxGeometry width="160" relative="1" as="geometry">
                        <mxPoint x="460" y="220" as="sourcePoint"/>
                        <mxPoint x="528" y="340" as="targetPoint"/>
                    </mxGeometry>
                </mxCell>
                <mxCell id="JI0BGSiuXUO0SO42sEZ8-8" value="" style="endArrow=none;startArrow=none;endFill=0;startFill=0;endSize=8;html=1;verticalAlign=bottom;labelBackgroundColor=none;strokeWidth=3;rounded=0;entryX=0.25;entryY=1;entryDx=0;entryDy=0;exitX=1.02;exitY=0.45;exitDx=0;exitDy=0;exitPerimeter=0;" parent="1" source="JI0BGSiuXUO0SO42sEZ8-3" target="JI0BGSiuXUO0SO42sEZ8-4" edge="1">
                    <mxGeometry width="160" relative="1" as="geometry">
                        <mxPoint x="100" y="310" as="sourcePoint"/>
                        <mxPoint x="268" y="249" as="targetPoint"/>
                    </mxGeometry>
                </mxCell>
                <mxCell id="JI0BGSiuXUO0SO42sEZ8-9" value="" style="html=1;verticalAlign=bottom;labelBackgroundColor=none;endArrow=block;endFill=1;rounded=0;" parent="1" edge="1">
                    <mxGeometry width="160" relative="1" as="geometry">
                        <mxPoint x="130" y="270" as="sourcePoint"/>
                        <mxPoint x="330" y="210" as="targetPoint"/>
                    </mxGeometry>
                </mxCell>
                <mxCell id="JI0BGSiuXUO0SO42sEZ8-10" value="" style="html=1;verticalAlign=bottom;labelBackgroundColor=none;endArrow=block;endFill=1;rounded=0;" parent="1" edge="1">
                    <mxGeometry width="160" relative="1" as="geometry">
                        <mxPoint x="610" y="190" as="sourcePoint"/>
                        <mxPoint x="750" y="240" as="targetPoint"/>
                    </mxGeometry>
                </mxCell>
                <mxCell id="JI0BGSiuXUO0SO42sEZ8-11" value="" style="endArrow=block;startArrow=none;endFill=0;startFill=0;endSize=8;html=1;verticalAlign=bottom;dashed=1;labelBackgroundColor=none;rounded=0;" parent="1" edge="1">
                    <mxGeometry width="160" relative="1" as="geometry">
                        <mxPoint x="740" y="370" as="sourcePoint"/>
                        <mxPoint x="600" y="440" as="targetPoint"/>
                    </mxGeometry>
                </mxCell>
                <mxCell id="JI0BGSiuXUO0SO42sEZ8-12" value="" style="html=1;verticalAlign=bottom;labelBackgroundColor=none;endArrow=block;endFill=1;rounded=0;" parent="1" edge="1">
                    <mxGeometry width="160" relative="1" as="geometry">
                        <mxPoint x="200" y="400" as="sourcePoint"/>
                        <mxPoint x="340" y="490" as="targetPoint"/>
                    </mxGeometry>
                </mxCell>
                <mxCell id="JI0BGSiuXUO0SO42sEZ8-13" value="" style="html=1;verticalAlign=bottom;labelBackgroundColor=none;endArrow=block;endFill=1;rounded=0;" parent="1" edge="1">
                    <mxGeometry width="160" relative="1" as="geometry">
                        <mxPoint x="630" y="480" as="sourcePoint"/>
                        <mxPoint x="810" y="390" as="targetPoint"/>
                    </mxGeometry>
                </mxCell>
                <mxCell id="JI0BGSiuXUO0SO42sEZ8-14" value="&lt;span style=&quot;color: rgb(0, 0, 0); font-family: Helvetica; font-size: 11px; font-style: normal; font-variant-ligatures: normal; font-variant-caps: normal; font-weight: 400; letter-spacing: normal; orphans: 2; text-align: center; text-indent: 0px; text-transform: none; widows: 2; word-spacing: 0px; -webkit-text-stroke-width: 0px; white-space: nowrap; background-color: rgb(255, 255, 255); text-decoration-thickness: initial; text-decoration-style: initial; text-decoration-color: initial; display: inline !important; float: none;&quot;&gt;1:建立備課資料()&lt;/span&gt;" style="text;whiteSpace=wrap;html=1;rotation=-15;" parent="1" vertex="1">
                    <mxGeometry x="140" y="160" width="120" height="40" as="geometry"/>
                </mxCell>
                <mxCell id="JI0BGSiuXUO0SO42sEZ8-15" value="&lt;span style=&quot;color: rgb(0, 0, 0); font-family: Helvetica; font-size: 11px; font-style: normal; font-variant-ligatures: normal; font-variant-caps: normal; font-weight: 400; letter-spacing: normal; orphans: 2; text-align: center; text-indent: 0px; text-transform: none; widows: 2; word-spacing: 0px; -webkit-text-stroke-width: 0px; white-space: nowrap; background-color: rgb(255, 255, 255); text-decoration-thickness: initial; text-decoration-style: initial; text-decoration-color: initial; display: inline !important; float: none;&quot;&gt;2:傳送備課資料()&lt;/span&gt;" style="text;whiteSpace=wrap;html=1;rotation=15;" parent="1" vertex="1">
                    <mxGeometry x="650" y="160" width="120" height="40" as="geometry"/>
                </mxCell>
                <mxCell id="JI0BGSiuXUO0SO42sEZ8-16" value="&lt;span style=&quot;color: rgb(0, 0, 0); font-family: Helvetica; font-size: 11px; font-style: normal; font-variant-ligatures: normal; font-variant-caps: normal; font-weight: 400; letter-spacing: normal; orphans: 2; text-align: center; text-indent: 0px; text-transform: none; widows: 2; word-spacing: 0px; -webkit-text-stroke-width: 0px; white-space: nowrap; background-color: rgb(255, 255, 255); text-decoration-thickness: initial; text-decoration-style: initial; text-decoration-color: initial; display: inline !important; float: none;&quot;&gt;3:顯示備課結果()&lt;/span&gt;&lt;div&gt;&lt;span style=&quot;color: rgb(0, 0, 0); font-family: Helvetica; font-size: 11px; font-style: normal; font-variant-ligatures: normal; font-variant-caps: normal; font-weight: 400; letter-spacing: normal; orphans: 2; text-align: center; text-indent: 0px; text-transform: none; widows: 2; word-spacing: 0px; -webkit-text-stroke-width: 0px; white-space: nowrap; background-color: rgb(255, 255, 255); text-decoration-thickness: initial; text-decoration-style: initial; text-decoration-color: initial; display: inline !important; float: none;&quot;&gt;6:傳送備課結果()&lt;/span&gt;&lt;/div&gt;&lt;div&gt;&lt;/div&gt;" style="text;whiteSpace=wrap;html=1;rotation=-25;" parent="1" vertex="1">
                    <mxGeometry x="580" y="340" width="120" height="40" as="geometry"/>
                </mxCell>
                <mxCell id="JI0BGSiuXUO0SO42sEZ8-17" value="&lt;span style=&quot;orphans: 2; text-align: center; text-indent: 0px; widows: 2; background-color: rgb(255, 255, 255); text-decoration-thickness: initial; text-decoration-style: initial; text-decoration-color: initial; float: none; display: inline !important;&quot;&gt;&lt;font color=&quot;#000000&quot;&gt;&lt;span style=&quot;font-size: 11px;&quot;&gt;4:修改建議備課資料()&lt;/span&gt;&lt;/font&gt;&lt;br&gt;&lt;font color=&quot;#000000&quot;&gt;&lt;span style=&quot;font-size: 11px;&quot;&gt;9:提出確認備課資料()&lt;/span&gt;&lt;/font&gt;&lt;br&gt;&lt;/span&gt;" style="text;whiteSpace=wrap;html=1;rotation=30;" parent="1" vertex="1">
                    <mxGeometry x="160" y="440" width="140" height="40" as="geometry"/>
                </mxCell>
                <mxCell id="JI0BGSiuXUO0SO42sEZ8-18" value="&lt;span style=&quot;color: rgb(0, 0, 0); font-family: Helvetica; font-size: 11px; font-style: normal; font-variant-ligatures: normal; font-variant-caps: normal; font-weight: 400; letter-spacing: normal; orphans: 2; text-align: center; text-indent: 0px; text-transform: none; widows: 2; word-spacing: 0px; -webkit-text-stroke-width: 0px; background-color: rgb(255, 255, 255); text-decoration-thickness: initial; text-decoration-style: initial; text-decoration-color: initial; float: none; display: inline !important;&quot;&gt;5:傳送備課資料()&lt;br&gt;&lt;span style=&quot;color: rgb(240, 240, 240); background-color: rgb(24, 20, 29);&quot;&gt;10:提出確認備課資料()&lt;/span&gt;&lt;br&gt;&lt;/span&gt;&lt;div&gt;&lt;/div&gt;" style="text;whiteSpace=wrap;html=1;rotation=-30;" parent="1" vertex="1">
                    <mxGeometry x="670" y="430" width="120" height="40" as="geometry"/>
                </mxCell>
                <mxCell id="2" value="修改建議資料" style="html=1;whiteSpace=wrap;rotation=0;direction=south;" parent="1" vertex="1">
                    <mxGeometry x="720" y="530" width="60" height="120" as="geometry"/>
                </mxCell>
                <mxCell id="4" value="" style="endArrow=none;startArrow=none;endFill=0;startFill=0;endSize=8;html=1;verticalAlign=bottom;labelBackgroundColor=none;strokeWidth=3;rounded=0;exitX=0.973;exitY=0.525;exitDx=0;exitDy=0;exitPerimeter=0;entryX=0.5;entryY=1;entryDx=0;entryDy=0;" parent="1" source="JI0BGSiuXUO0SO42sEZ8-3" target="2" edge="1">
                    <mxGeometry width="160" relative="1" as="geometry">
                        <mxPoint x="550.0013972081441" y="648.75" as="sourcePoint"/>
                        <mxPoint x="710" y="580" as="targetPoint"/>
                    </mxGeometry>
                </mxCell>
                <mxCell id="5" value="&lt;span style=&quot;color: rgb(0, 0, 0); font-family: Helvetica; font-size: 12px; font-style: normal; font-variant-ligatures: normal; font-variant-caps: normal; font-weight: 400; letter-spacing: normal; orphans: 2; text-align: center; text-indent: 0px; text-transform: none; widows: 2; word-spacing: 0px; -webkit-text-stroke-width: 0px; background-color: rgb(251, 251, 251); text-decoration-thickness: initial; text-decoration-style: initial; text-decoration-color: initial; float: none; display: inline !important;&quot;&gt;7:編輯建議資料()&lt;/span&gt;" style="text;whiteSpace=wrap;html=1;rotation=30;" parent="1" vertex="1">
                    <mxGeometry x="550" y="580" width="120" height="30" as="geometry"/>
                </mxCell>
                <mxCell id="7" value="" style="html=1;verticalAlign=bottom;labelBackgroundColor=none;endArrow=block;endFill=1;rounded=0;" parent="1" edge="1">
                    <mxGeometry width="160" relative="1" as="geometry">
                        <mxPoint x="550" y="540" as="sourcePoint"/>
                        <mxPoint x="710" y="600" as="targetPoint"/>
                    </mxGeometry>
                </mxCell>
                <mxCell id="8" value="" style="endArrow=block;startArrow=none;endFill=0;startFill=0;endSize=8;html=1;verticalAlign=bottom;dashed=1;labelBackgroundColor=none;rounded=0;" parent="1" edge="1">
                    <mxGeometry width="160" relative="1" as="geometry">
                        <mxPoint x="690" y="560" as="sourcePoint"/>
                        <mxPoint x="560" y="500" as="targetPoint"/>
                    </mxGeometry>
                </mxCell>
                <mxCell id="11" value="" style="endArrow=none;startArrow=none;endFill=0;startFill=0;endSize=8;html=1;verticalAlign=bottom;dashed=1;labelBackgroundColor=none;rounded=0;" parent="1" target="6" edge="1">
                    <mxGeometry width="160" relative="1" as="geometry">
                        <mxPoint x="690" y="560" as="sourcePoint"/>
                        <mxPoint x="560" y="500" as="targetPoint"/>
                    </mxGeometry>
                </mxCell>
                <mxCell id="6" value="&lt;span style=&quot;color: rgb(0, 0, 0); font-family: Helvetica; font-size: 12px; font-style: normal; font-variant-ligatures: normal; font-variant-caps: normal; font-weight: 400; letter-spacing: normal; orphans: 2; text-align: center; text-indent: 0px; text-transform: none; widows: 2; word-spacing: 0px; -webkit-text-stroke-width: 0px; background-color: rgb(251, 251, 251); text-decoration-thickness: initial; text-decoration-style: initial; text-decoration-color: initial; float: none; display: inline !important;&quot;&gt;8:顯示建議資料()&lt;/span&gt;" style="text;whiteSpace=wrap;html=1;rotation=15;" parent="1" vertex="1">
                    <mxGeometry x="610" y="510" width="120" height="40" as="geometry"/>
                </mxCell>
            </root>
        </mxGraphModel>
    </diagram>
</mxfile>